<svg width="144" height="421" viewBox="0 0 144 421" fill="none" xmlns="http://www.w3.org/2000/svg">
<path d="M1.79803 167.171C1.70694 166.605 2.31645 166.018 3.20082 165.84C4.11881 165.654 4.99027 165.98 5.14029 166.566C5.72009 168.803 6.51012 170.939 7.48394 172.919C7.75789 173.473 7.25862 174.138 6.36688 174.401C5.47515 174.663 4.53073 174.425 4.25642 173.869C3.2369 171.8 2.41066 169.569 1.80858 167.236C1.80507 167.215 1.80155 167.193 1.79803 167.171ZM0.57057 159.049C0.566701 159.025 0.562835 159.001 0.562356 158.976C0.43694 156.769 0.455607 154.417 0.61457 151.984C0.655491 151.373 1.44236 150.827 2.3736 150.767C3.30484 150.706 4.02802 151.15 3.98746 151.764C3.82953 154.138 3.81192 156.432 3.93463 158.579C3.96915 159.183 3.24027 159.765 2.30962 159.872C1.41703 159.977 0.657574 159.611 0.566829 159.047L0.57057 159.049ZM1.64871 143.797C1.63605 143.718 1.63698 143.637 1.65149 143.554C2.09358 141.04 2.61769 138.732 3.25544 136.503C3.432 135.889 4.3175 135.415 5.2319 135.445C6.14629 135.475 6.74614 135.997 6.56957 136.61C5.94751 138.786 5.43192 141.038 5.00213 143.499C4.89562 144.114 4.05756 144.623 3.12982 144.641C2.33057 144.655 1.72552 144.295 1.64568 143.799L1.64871 143.797ZM9.07241 180.837C9.00488 180.417 9.32436 179.956 9.93826 179.677C10.7536 179.309 11.7833 179.405 12.2316 179.895C13.8804 181.694 15.8287 183.362 18.0272 184.852C18.6295 185.26 18.5408 185.964 17.8306 186.424C17.1205 186.883 16.0538 186.925 15.4515 186.518C13.1083 184.929 11.0309 183.152 9.27616 181.236C9.16228 181.113 9.09866 180.978 9.0758 180.836L9.07241 180.837ZM6.36051 128.515C6.33695 128.369 6.36024 128.21 6.43589 128.052C7.59687 125.631 8.9576 123.303 10.4807 121.139C10.892 120.555 11.9035 120.235 12.7392 120.426C13.5749 120.616 13.9199 121.244 13.5086 121.828C12.0537 123.896 10.7529 126.12 9.6417 128.439C9.35222 129.044 8.39969 129.448 7.51141 129.343C6.85753 129.264 6.42359 128.928 6.35712 128.515L6.36051 128.515ZM24.3761 190.67C24.3357 190.419 24.4311 190.146 24.6736 189.898C25.2092 189.351 26.2609 189.13 27.0237 189.408C29.8923 190.45 32.9026 191.203 35.9672 191.644C36.8413 191.77 37.2953 192.36 36.9742 192.963C36.6565 193.566 35.6869 193.95 34.809 193.823C31.4694 193.341 28.1981 192.525 25.0886 191.394C24.6702 191.241 24.4247 190.972 24.3761 190.67ZM17.0715 114.13C17.0275 113.857 17.1429 113.556 17.4318 113.294C19.7637 111.175 22.3392 109.227 25.0835 107.506C25.8052 107.053 26.8669 107.024 27.46 107.439C28.0497 107.855 27.9434 108.558 27.222 109.013C24.6613 110.619 22.2537 112.441 20.0677 114.427C19.4837 114.956 18.4216 115.134 17.695 114.82C17.328 114.662 17.1169 114.412 17.0719 114.132L17.0715 114.13ZM15.4383 16.9041C15.3465 16.3339 15.9659 15.7433 16.8581 15.5706C17.7806 15.3907 18.6425 15.7225 18.7857 16.3091C19.3159 18.4762 20.0116 20.6547 20.8553 22.778C21.0794 23.3471 20.5324 23.9977 19.6286 24.2283C18.7251 24.4612 17.8064 24.1878 17.5823 23.6187C16.7145 21.4321 15.9983 19.1918 15.4509 16.9603C15.4477 16.9407 15.4449 16.9232 15.4417 16.9035L15.4383 16.9041ZM14.1939 8.78501C14.1904 8.76316 14.1865 8.73913 14.183 8.71729C14.0365 6.37863 14.0707 4.01535 14.2864 1.69683C14.3446 1.08456 15.1435 0.548048 16.0761 0.496503C17.0057 0.44769 17.7133 0.90304 17.6588 1.51694C17.4485 3.76065 17.4159 6.04746 17.5576 8.31293C17.5955 8.91644 16.8701 9.49717 15.9401 9.60879C15.0445 9.71713 14.285 9.35082 14.1939 8.78501ZM67.6589 338.007C67.6589 338.007 67.6575 337.999 67.6565 337.992C67.3995 336.158 67.2129 334.35 67.0986 332.622C67.0636 332.124 67.0283 331.623 66.9896 331.123C66.9445 330.518 67.6591 329.935 68.5918 329.818C69.5244 329.701 70.3197 330.096 70.361 330.699C70.4005 331.203 70.4365 331.708 70.4688 332.212C70.5812 333.906 70.7655 335.678 71.0169 337.478C71.0993 338.077 70.4151 338.675 69.4867 338.818C68.5647 338.958 67.7502 338.596 67.6552 338.006L67.6589 338.007ZM69.1724 346.088C69.0799 345.513 69.7061 344.922 70.6058 344.752C71.529 344.576 72.3882 344.913 72.5213 345.501C73.0166 347.647 73.6041 349.868 74.2638 352.104C74.4376 352.685 73.8321 353.318 72.9158 353.515C71.9996 353.712 71.1167 353.402 70.9463 352.819C70.2786 350.556 69.6831 348.307 69.1802 346.136C69.1777 346.12 69.1749 346.103 69.1724 346.088ZM66.2645 322.983C66.2617 322.965 66.2589 322.948 66.2565 322.932C66.0927 321.049 65.8917 318.567 65.8155 316.038C65.798 315.431 66.5388 314.859 67.4709 314.76C68.4029 314.662 69.1732 315.074 69.1907 315.68C69.2643 318.172 69.4614 320.63 69.6254 322.493C69.6773 323.097 68.9665 323.682 68.0349 323.805C67.1304 323.924 66.3536 323.558 66.2615 322.985L66.2645 322.983ZM46.1463 193.176C46.1424 193.152 46.1382 193.126 46.1373 193.099C46.1062 192.495 46.8354 191.915 47.7661 191.808C47.9234 191.79 48.0841 191.77 48.2445 191.749C48.784 191.68 49.3256 191.602 49.8623 191.516C52.3828 191.11 54.997 190.485 57.6272 189.656C58.5097 189.379 59.4682 189.597 59.769 190.145C60.066 190.691 59.5957 191.363 58.7136 191.641C55.8445 192.545 52.9817 193.228 50.2132 193.673C49.6187 193.769 49.016 193.857 48.4214 193.93C48.2437 193.952 48.066 193.974 47.8846 193.995C46.9917 194.098 46.2393 193.733 46.1486 193.169L46.1463 193.176ZM73.523 360.598C73.4365 360.061 73.9866 359.495 74.825 359.291C75.7339 359.07 76.6405 359.355 76.8479 359.929C77.6175 362.046 78.4614 364.214 79.3518 366.368C79.5898 366.937 79.0463 367.587 78.1435 367.824C77.2408 368.062 76.3197 367.795 76.0854 367.228C75.1847 365.053 74.3308 362.866 73.5543 360.728C73.5367 360.684 73.5263 360.64 73.5193 360.597L73.523 360.598ZM21.2645 31.0338C21.1867 30.551 21.6222 30.0304 22.3631 29.7834C23.2397 29.4921 24.2064 29.695 24.5272 30.2373C25.7191 32.2508 27.0669 34.2369 28.5344 36.1432C28.9305 36.6554 28.568 37.3481 27.7229 37.6836C26.8782 38.0213 25.8724 37.8784 25.4793 37.3635C23.9684 35.4036 22.5832 33.3585 21.358 31.2899C21.3096 31.2058 21.2785 31.1212 21.2641 31.0316L21.2645 31.0338ZM66.1383 307.825C66.1277 307.76 66.1274 307.693 66.1338 307.624C66.4385 305.101 66.9353 302.775 67.6514 300.513C67.8453 299.899 68.7431 299.436 69.6559 299.478C70.5686 299.519 71.1491 300.051 70.9552 300.665C70.2685 302.828 69.7912 305.059 69.4986 307.484C69.423 308.097 68.6126 308.626 67.6812 308.664C66.8573 308.698 66.2168 308.335 66.1349 307.826L66.1383 307.825ZM35.3276 103.295C35.2516 102.823 35.6674 102.31 36.3865 102.057C38.6689 101.255 41.0202 100.599 43.3699 100.106C44.2699 99.9163 45.2073 99.743 46.1619 99.5893C46.4846 99.5373 46.8076 99.4876 47.1345 99.4394C48.0639 99.3032 48.8904 99.6744 48.9528 100.278C49.0284 100.878 48.3367 101.474 47.4072 101.61C47.1076 101.654 46.8083 101.7 46.5128 101.747C45.6397 101.888 44.7835 102.046 43.9677 102.217C41.837 102.664 39.7061 103.26 37.6313 103.988C36.764 104.294 35.7824 104.107 35.4419 103.572C35.3853 103.48 35.3495 103.388 35.334 103.291L35.3276 103.295ZM79.443 374.726C79.361 374.217 79.8518 373.672 80.6448 373.446C81.5376 373.19 82.4796 373.435 82.7437 373.993C83.7355 376.084 84.7899 378.196 85.8724 380.265C86.1599 380.817 85.6783 381.484 84.7914 381.754C83.9044 382.025 82.9516 381.8 82.664 381.248C81.5717 379.16 80.511 377.031 79.5093 374.922C79.478 374.858 79.4573 374.794 79.4464 374.726L79.443 374.726ZM86.7107 388.481C86.6326 387.996 87.0714 387.475 87.8161 387.229C88.6931 386.94 89.6604 387.147 89.9775 387.688C91.1713 389.735 92.4212 391.784 93.6929 393.773C94.0334 394.308 93.6063 394.988 92.7386 395.292C91.8708 395.595 90.8893 395.408 90.5488 394.873C89.2672 392.865 88.0076 390.8 86.8004 388.735C86.7524 388.653 86.7214 388.569 86.7073 388.481L86.7107 388.481ZM31.3255 43.76C31.2604 43.3559 31.5514 42.9123 32.1262 42.6293C32.9241 42.2386 33.9597 42.3072 34.4471 42.78C36.263 44.5563 38.222 46.2692 40.2713 47.8712C40.8291 48.3059 40.6745 49.0121 39.9288 49.4459C39.1832 49.8797 38.1234 49.8778 37.5656 49.4431C35.4528 47.7931 33.433 46.0272 31.5631 44.1969C31.4271 44.0664 31.3504 43.9151 31.3255 43.76ZM71.4795 292.622C71.4506 292.443 71.4924 292.248 71.6114 292.056C73.0677 289.737 74.8089 287.478 76.7864 285.344C77.2999 284.788 78.3492 284.552 79.1268 284.815C79.9044 285.077 80.116 285.743 79.6026 286.298C77.7353 288.315 76.0856 290.45 74.7071 292.647C74.3357 293.24 73.3393 293.589 72.4867 293.423C71.9078 293.313 71.5434 292.997 71.4825 292.619L71.4795 292.622ZM95.2843 401.796C95.2105 401.337 95.6008 400.84 96.2906 400.578C97.145 400.257 98.14 400.42 98.51 400.943C99.9259 402.94 101.386 404.908 102.853 406.792C103.253 407.304 102.894 407.996 102.049 408.336C101.205 408.676 100.199 408.535 99.7995 408.021C98.3185 406.117 96.8414 404.129 95.4084 402.112C95.3365 402.012 95.2951 401.906 95.2779 401.799L95.2843 401.796ZM77.6459 261.222C77.6146 261.028 77.5829 260.831 77.555 260.636C77.4658 260.039 78.146 259.436 79.0744 259.293C79.9991 259.149 80.8207 259.512 80.916 260.104C80.9164 260.106 80.9171 260.111 80.9175 260.113C81.2416 262.3 81.7244 264.519 82.3411 266.726C82.5024 267.316 81.8951 267.939 80.9748 268.132C80.0578 268.324 79.181 268.008 79.0171 267.423C78.4368 265.356 77.9755 263.269 77.6459 261.222ZM77.0139 252.426C77.0072 252.385 77.0039 252.343 77.0037 252.298C77.0495 249.942 77.268 247.576 77.6592 245.265L77.6641 245.231C77.7777 244.616 78.6192 244.106 79.5442 244.094C80.4693 244.082 81.1298 244.569 81.0161 245.184L79.3401 245.207L81.0138 245.191C80.6328 247.435 80.4197 249.727 80.3762 252.011C80.3662 252.62 79.5991 253.18 78.6673 253.258C77.8011 253.333 77.0974 252.967 77.0105 252.427L77.0139 252.426ZM45.4179 54.4902C45.3658 54.1669 45.5387 53.8118 45.9326 53.531C46.6076 53.0481 47.6743 52.9637 48.3176 53.3442C50.7358 54.7703 53.2802 56.0931 55.8892 57.2755C56.6036 57.5998 56.6967 58.2863 56.0977 58.8086C55.4987 59.3308 54.4337 59.4911 53.7194 59.1668C51.0163 57.9413 48.3805 56.5704 45.8774 55.0931C45.6079 54.9347 45.4548 54.7196 45.4179 54.4902ZM81.7789 275.161C81.6952 274.641 82.209 274.087 83.0207 273.869C83.919 273.626 84.8466 273.889 85.0907 274.453C85.4869 275.377 85.9122 276.308 86.3622 277.242C88.7866 275.633 91.3587 274.206 94.0171 272.989C94.8317 272.615 95.861 272.71 96.3128 273.199C96.7676 273.687 96.4759 274.386 95.6612 274.759C92.8049 276.066 90.0577 277.64 87.4895 279.439C87.4831 279.442 87.4804 279.447 87.474 279.45C87.6945 279.867 87.915 280.285 88.1453 280.698C88.4461 281.246 87.9754 281.915 87.0933 282.194C86.2112 282.473 85.2526 282.255 84.9518 281.707C83.7923 279.592 82.7428 277.446 81.8342 275.331C81.8111 275.274 81.7952 275.219 81.786 275.162L81.7789 275.161ZM67.9046 186.28C67.8396 185.876 68.1336 185.429 68.7088 185.149C71.2741 183.895 74.0252 182.432 77.3623 180.539C78.1158 180.111 79.1735 180.122 79.7189 180.565C80.2676 181.008 80.0987 181.712 79.3414 182.139C75.924 184.074 73.1027 185.577 70.4533 186.871C69.6554 187.262 68.616 187.192 68.1351 186.716C68.0025 186.585 67.9262 186.436 67.9012 186.28L67.9046 186.28ZM105.336 414.553C105.267 414.125 105.6 413.656 106.225 413.383C107.048 413.022 108.07 413.131 108.509 413.627C110.198 415.55 111.921 417.399 113.632 419.129C114.107 419.609 113.84 420.311 113.037 420.695C112.235 421.08 111.198 421.003 110.724 420.523C108.988 418.768 107.235 416.889 105.521 414.94C105.414 414.82 105.355 414.689 105.333 414.556L105.336 414.553ZM79.9243 237.125C79.9046 237.003 79.9182 236.871 79.9668 236.74C80.8503 234.37 81.9348 232.015 83.1955 229.736C83.5275 229.136 84.5019 228.759 85.374 228.895C86.2461 229.03 86.6835 229.625 86.3515 230.225C85.14 232.42 84.0938 234.688 83.2418 236.972C83.0125 237.583 82.0976 238.026 81.1919 237.964C80.4834 237.914 79.9954 237.567 79.9247 237.128L79.9243 237.125ZM58.2563 99.8362C58.245 99.7663 58.2443 99.697 58.2531 99.6216C58.3355 99.0077 59.1571 98.4832 60.0862 98.4524C60.7861 98.4271 61.4867 98.4062 62.1869 98.3831C64.9329 98.2951 67.7724 98.2033 70.5368 98.0137C71.4674 97.949 72.1977 98.394 72.1602 99.0052C72.126 99.6158 71.3395 100.164 70.409 100.228C67.5514 100.424 64.6633 100.517 61.8725 100.608C61.1756 100.63 60.4788 100.653 59.7823 100.678C58.9644 100.706 58.3345 100.344 58.2533 99.8389L58.2563 99.8362ZM89.4609 288.761C89.3881 288.309 89.7652 287.815 90.4441 287.551C91.2933 287.22 92.2937 287.372 92.6769 287.891C94.2389 289.995 95.8498 291.775 97.5959 293.334C98.109 293.794 97.8983 294.498 97.1205 294.906C96.3428 295.313 95.2944 295.274 94.7812 294.814C92.9337 293.166 91.2418 291.294 89.6044 289.09C89.5284 288.985 89.4792 288.874 89.4609 288.761ZM88.4731 222.255C88.4383 222.038 88.5046 221.801 88.685 221.58C90.4882 219.337 92.4954 217.172 94.6506 215.146C95.2196 214.611 96.28 214.422 97.0188 214.724C97.7575 215.027 97.8947 215.706 97.3224 216.242C95.2609 218.179 93.3425 220.247 91.6177 222.392C91.1591 222.963 90.1277 223.246 89.318 223.022C88.8256 222.886 88.5238 222.592 88.4697 222.255L88.4731 222.255ZM63.389 62.3838C63.352 62.1544 63.4299 61.9021 63.6326 61.6678C64.124 61.1046 65.1629 60.8476 65.9554 61.0943C68.2556 61.8087 70.6666 62.4762 72.9946 63.1256C73.677 63.3161 74.3624 63.5038 75.0417 63.697C75.8517 63.9229 76.1303 64.5706 75.6682 65.1426C75.2062 65.7145 74.1741 65.9927 73.3641 65.7668C72.6851 65.5758 72.0065 65.387 71.3245 65.1987C68.9679 64.5449 66.5272 63.8665 64.1757 63.1357C63.7135 62.9927 63.4376 62.7077 63.3856 62.3844L63.389 62.3838ZM102.923 299.711C102.879 299.44 102.995 299.142 103.277 298.881C103.857 298.348 104.919 298.168 105.649 298.479C108.315 299.605 111.331 300.395 114.37 300.764C115.255 300.87 115.739 301.449 115.449 302.054C115.16 302.658 114.204 303.063 113.319 302.957C109.907 302.545 106.531 301.663 103.558 300.405C103.187 300.247 102.972 299.995 102.927 299.713L102.923 299.711ZM86.9315 175.773C86.8703 175.393 87.1238 174.976 87.6421 174.689C91.0581 172.81 93.949 171.349 96.7332 170.092C97.5519 169.722 98.5752 169.822 99.0239 170.315C99.4722 170.805 99.1734 171.503 98.3547 171.872C95.6772 173.079 92.8898 174.489 89.5761 176.311C88.811 176.733 87.7583 176.709 87.2259 176.259C87.0565 176.116 86.9597 175.948 86.9308 175.769L86.9315 175.773ZM105.06 270.296C104.968 269.726 105.584 269.138 106.476 268.963C106.645 268.929 106.811 268.898 106.98 268.867C107.406 268.787 107.836 268.711 108.264 268.642C111.322 268.15 114.448 267.935 117.558 268.008C118.474 268.029 119.087 268.544 118.925 269.16C118.762 269.773 117.885 270.255 116.965 270.235C114.167 270.17 111.357 270.363 108.613 270.805C108.232 270.866 107.846 270.933 107.467 271.005C107.311 271.034 107.159 271.063 107.004 271.095C106.082 271.277 105.22 270.945 105.073 270.359C105.07 270.339 105.067 270.32 105.064 270.3L105.06 270.296ZM81.3666 97.3974C81.2829 96.8775 81.7937 96.3268 82.6017 96.1071C86.0876 95.1604 89.0519 93.939 91.4124 92.4742C92.1379 92.0235 93.2006 92.0003 93.7873 92.4191C94.374 92.8379 94.2574 93.5425 93.5353 93.9927C90.8102 95.682 87.432 97.082 83.4953 98.1507C82.5969 98.3939 81.6667 98.1358 81.4226 97.5722C81.3996 97.5154 81.3799 97.458 81.3704 97.3991L81.3666 97.3974ZM102.942 209.111C102.888 208.775 103.079 208.403 103.504 208.12C103.749 207.955 103.998 207.789 104.247 207.628C106.392 206.227 108.791 204.81 112.025 203.036C112.791 202.617 113.844 202.641 114.376 203.091C114.912 203.54 114.722 204.245 113.957 204.664C110.819 206.386 108.502 207.754 106.446 209.096C106.209 209.251 105.973 209.406 105.74 209.562C105.042 210.031 103.974 210.088 103.356 209.69C103.115 209.534 102.977 209.33 102.943 209.113L102.942 209.111ZM83.2252 68.4419C83.183 68.1798 83.2899 67.8914 83.5555 67.6357C84.1136 67.0976 85.1726 66.9002 85.9204 67.1944C87.9419 67.9963 89.7058 68.8217 91.314 69.7193C92.2177 70.2237 93.0839 70.7768 93.8969 71.3676C94.4772 71.7897 94.3572 72.4948 93.6276 72.9417C92.898 73.3886 91.835 73.4096 91.2547 72.9876C90.5243 72.4552 89.74 71.9562 88.9284 71.5041C87.4347 70.6688 85.7877 69.8986 83.8934 69.1502C83.5026 68.9957 83.2724 68.7347 83.2256 68.4441L83.2252 68.4419ZM124.659 301.355C124.575 300.831 125.095 300.274 125.911 300.06C126.449 299.917 126.981 299.76 127.5 299.587C129.935 298.776 132.13 297.602 134.024 296.098C134.661 295.594 135.728 295.47 136.408 295.819C137.088 296.172 137.127 296.865 136.493 297.368C134.235 299.161 131.6 300.567 128.662 301.545C128.044 301.749 127.405 301.94 126.764 302.11C125.861 302.347 124.94 302.081 124.705 301.514C124.683 301.461 124.667 301.406 124.659 301.353L124.659 301.355ZM107.598 167.072C107.512 166.541 108.046 165.98 108.873 165.77C109.546 165.599 110.227 165.438 110.901 165.292C111.722 165.112 112.564 164.952 113.407 164.816C115.557 164.47 117.755 164.269 119.942 164.215C120.868 164.191 121.542 164.674 121.442 165.287C121.346 165.9 120.512 166.418 119.585 166.439C117.631 166.487 115.667 166.669 113.751 166.978C113.004 167.098 112.256 167.238 111.529 167.398C110.916 167.533 110.292 167.68 109.676 167.835C108.772 168.066 107.856 167.79 107.632 167.221C107.614 167.172 107.599 167.123 107.591 167.073L107.598 167.072ZM97.274 85.979C97.2571 85.8742 97.2633 85.7611 97.2973 85.648C97.8918 83.6473 97.7092 81.496 96.7629 79.3847C96.5086 78.8228 97.0335 78.1645 97.9311 77.9169C98.8287 77.6693 99.7616 77.9225 100.012 78.485C101.101 80.9185 101.308 83.4177 100.607 85.7697C100.423 86.3841 99.5338 86.8546 98.6221 86.8198C97.8788 86.7916 97.3482 86.44 97.274 85.979ZM127.335 271.266C127.297 271.03 127.378 270.775 127.591 270.537C128.093 269.977 129.133 269.728 129.92 269.981C133.151 271.02 135.902 272.417 138.102 274.132C138.66 274.569 138.509 275.272 137.759 275.707C137.014 276.14 135.954 276.141 135.396 275.704C133.443 274.178 130.988 272.937 128.106 272.007C127.654 271.86 127.383 271.581 127.331 271.263L127.335 271.266ZM121.738 198.427C121.678 198.055 121.919 197.647 122.42 197.36C125.382 195.666 127.712 194.186 129.758 192.698C129.939 192.566 130.12 192.434 130.297 192.3C130.953 191.806 132.02 191.702 132.685 192.068C133.347 192.434 133.355 193.13 132.699 193.625C132.504 193.773 132.307 193.917 132.111 194.061C129.952 195.63 127.505 197.185 124.419 198.95C123.666 199.381 122.612 199.371 122.06 198.933C121.876 198.786 121.772 198.612 121.742 198.426L121.738 198.427ZM139.385 289.199C139.365 289.079 139.376 288.952 139.425 288.821C140.13 286.858 140.343 284.829 140.041 282.95C140.008 282.745 139.968 282.541 139.925 282.337C139.805 281.747 140.434 281.13 141.358 280.957C142.282 280.785 143.134 281.123 143.268 281.714C143.319 281.945 143.363 282.176 143.401 282.41C143.742 284.531 143.501 286.822 142.707 289.034C142.488 289.645 141.575 290.095 140.669 290.035C139.958 289.988 139.459 289.642 139.388 289.197L139.385 289.199ZM130.022 167.083C129.985 166.852 130.063 166.601 130.266 166.367C130.757 165.804 131.796 165.547 132.589 165.794C135.986 166.851 138.658 168.362 140.526 170.285C140.997 170.767 140.72 171.468 139.917 171.849C139.11 172.229 138.076 172.147 137.608 171.667C136.021 170.033 133.733 168.745 130.812 167.835C130.35 167.692 130.074 167.407 130.022 167.085L130.022 167.083ZM137.15 185.833C137.118 185.639 137.169 185.431 137.31 185.227C138.857 182.992 139.772 180.819 140.026 178.763C140.102 178.15 140.916 177.622 141.847 177.584C142.775 177.547 143.467 178.014 143.392 178.629C143.105 180.959 142.081 183.405 140.353 185.902C139.946 186.488 138.938 186.812 138.1 186.626C137.554 186.503 137.215 186.197 137.157 185.834L137.15 185.833Z" fill="white"/>
</svg>
